<?xml version="1.0" standalone="no"?>
<!DOCTYPE svg PUBLIC "-//W3C//DTD SVG 20010904//EN"
 "http://www.w3.org/TR/2001/REC-SVG-20010904/DTD/svg10.dtd">
<svg version="1.0" xmlns="http://www.w3.org/2000/svg"
 width="82.000000pt" height="42.000000pt" viewBox="0 0 82.000000 42.000000"
 preserveAspectRatio="xMidYMid meet">

<g transform="translate(0.000000,42.000000) scale(0.100000,-0.100000)"
fill="#000000" stroke="none">
<path d="M0 210 l0 -210 410 0 410 0 0 210 0 210 -410 0 -410 0 0 -210z m372
168 c13 -34 -2 -38 -143 -38 l-139 0 0 -129 c0 -102 -3 -131 -15 -141 -12 -10
-18 -10 -30 0 -12 10 -15 40 -15 150 0 76 3 145 6 154 5 14 30 16 169 16 121
0 164 -3 167 -12z m358 -3 c89 -46 79 -171 -16 -211 -34 -14 -178 -19 -208 -8
-16 6 -23 44 -8 44 4 0 50 2 103 3 79 2 101 5 118 21 27 24 27 70 1 96 -18 18
-33 20 -135 20 l-115 0 0 -134 c0 -113 -2 -135 -16 -140 -9 -3 -20 -4 -25 0
-5 3 -9 77 -9 165 l0 159 140 0 c106 0 148 -4 170 -15z m-395 -150 c0 -19 -8
-20 -109 -23 -111 -3 -134 3 -123 33 6 13 24 15 119 13 105 -3 113 -4 113 -23z"/>
</g>
</svg>
